PathFileType	4	(X/Y/Z)	Kaydara	
DataRate	CameraRate	NumFrames	NumMarkers	Units	OrigDataRate	OrigDataStartFrame	OrigNumFrames	
120.00	120.00	4	72	mm	120.00	68	268	
Frame#	Time	Hips			RightUpLeg			RightLeg			RightFoot			RightFoot_End			LeftUpLeg			LeftLeg			LeftFoot			LeftFoot_End			Spine			Spine1			Spine2			Spine3			Neck			Head			Head_End			RightShoulder			RightArm			RightForeArm			RightHand			RightHandThumb1			RightHandThumb2			RightHandThumb3			RightHandThumb3_End			RightInHandIndex			RightHandIndex1			RightHandIndex2			RightHandIndex3			RightHandIndex3_End			RightInHandMiddle			RightHandMiddle1			RightHandMiddle2			RightHandMiddle3			RightHandMiddle3_End			RightInHandRing			RightHandRing1			RightHandRing2			RightHandRing3			RightHandRing3_End			RightInHandPinky			RightHandPinky1			RightHandPinky2			RightHandPinky3			RightHandPinky3_End			LeftShoulder			LeftArm			LeftForeArm			LeftHand			LeftHandThumb1			LeftHandThumb2			LeftHandThumb3			LeftHandThumb3_End			LeftInHandIndex			LeftHandIndex1			LeftHandIndex2			LeftHandIndex3			LeftHandIndex3_End			LeftInHandMiddle			LeftHandMiddle1			LeftHandMiddle2			LeftHandMiddle3			LeftHandMiddle3_End			LeftInHandRing			LeftHandRing1			LeftHandRing2			LeftHandRing3			LeftHandRing3_End			LeftInHandPinky			LeftHandPinky1			LeftHandPinky2			LeftHandPinky3			LeftHandPinky3_End			
		X1	Y1	Z1	X2	Y2	Z2	X3	Y3	Z3	X4	Y4	Z4	X5	Y5	Z5	X6	Y6	Z6	X7	Y7	Z7	X8	Y8	Z8	X9	Y9	Z9	X10	Y10	Z10	X11	Y11	Z11	X12	Y12	Z12	X13	Y13	Z13	X14	Y14	Z14	X15	Y15	Z15	X16	Y16	Z16	X17	Y17	Z17	X18	Y18	Z18	X19	Y19	Z19	X20	Y20	Z20	X21	Y21	Z21	X22	Y22	Z22	X23	Y23	Z23	X24	Y24	Z24	X25	Y25	Z25	X26	Y26	Z26	X27	Y27	Z27	X28	Y28	Z28	X29	Y29	Z29	X30	Y30	Z30	X31	Y31	Z31	X32	Y32	Z32	X33	Y33	Z33	X34	Y34	Z34	X35	Y35	Z35	X36	Y36	Z36	X37	Y37	Z37	X38	Y38	Z38	X39	Y39	Z39	X40	Y40	Z40	X41	Y41	Z41	X42	Y42	Z42	X43	Y43	Z43	X44	Y44	Z44	X45	Y45	Z45	X46	Y46	Z46	X47	Y47	Z47	X48	Y48	Z48	X49	Y49	Z49	X50	Y50	Z50	X51	Y51	Z51	X52	Y52	Z52	X53	Y53	Z53	X54	Y54	Z54	X55	Y55	Z55	X56	Y56	Z56	X57	Y57	Z57	X58	Y58	Z58	X59	Y59	Z59	X60	Y60	Z60	X61	Y61	Z61	X62	Y62	Z62	X63	Y63	Z63	X64	Y64	Z64	X65	Y65	Z65	X66	Y66	Z66	X67	Y67	Z67	X68	Y68	Z68	X69	Y69	Z69	X70	Y70	Z70	X71	Y71	Z71	X72	Y72	Z72	

68	0.558	5446.805	859.65103	-201.189	5531.414576275387	855.8582116895068	-231.96667606666995	5395.599016323962	464.16805387278885	-285.49122252465656	5433.526221796268	47.06904576222244	-347.66155512665193	5357.442843929087	-32.12635206638929	-190.48854617668567	5371.649881179387	835.683336901142	-156.5353222354439	5254.05539151147	438.1746573794915	-98.74065650549035	5196.112128345031	62.70509245177843	73.22477121808076	5228.9946011152915	19.333300995414298	254.9571042319413	5400.298962770434	981.121666083869	-260.0341681456246	5346.890376353598	1046.27684681839	-307.7188244111537	5284.600254238522	1107.3551208742565	-357.828089595534	5217.0435142807955	1156.446410459002	-406.3602157500156	5144.0531743936435	1209.2089958880226	-454.69831049606904	5102.405898141679	1281.9272684429711	-410.83981470130766	5079.5464820834395	1367.4731370918378	-278.3556258979077	5186.980259131613	1198.9896137520607	-457.08898642142634	5262.905581745932	1202.4985074514505	-530.3798748613584	5337.984598743902	990.3605707283833	-550.785516818516	5425.66917561965	894.0839515389505	-639.0217632851511	5430.219475363792	899.9114657683469	-651.998528032944	5423.796536983783	900.9112744969143	-668.9480294116562	5420.28947200539	899.2844814361575	-679.9199991266876	5418.192061411387	895.9409824488041	-688.3553842962507	5435.6543211312455	891.8855503408026	-649.7389384306239	5447.7620161836585	880.9186508718476	-665.0641819787198	5447.8818012707825	874.5315823572463	-678.2336139533973	5441.670797116874	873.9873541030341	-687.2840905718284	5432.290206440626	875.84825209274	-695.3573212556009	5437.4651216943175	886.0080862995756	-647.0625731968755	5450.256436457939	872.1318281228655	-660.5619945113328	5450.576427954768	864.4238730098751	-674.5327410508503	5443.1738953797985	863.4129604305706	-685.2599985899043	5432.953972199388	865.276870324807	-694.0003270240998	5438.528546358165	882.1055109556266	-644.7528283348092	5451.187523335762	866.1940940288376	-654.7645872175261	5451.63870710632	858.7433032720534	-666.5120194387756	5444.589853176495	857.3792000788428	-676.6312093888216	5435.023891796363	858.947414966032	-684.7412304352943	5438.670320782798	878.1616926640949	-641.8658761366316	5450.68463826786	861.0322533409678	-649.1804094660006	5451.258810964541	853.9927468926307	-657.8737599796268	5446.220325955961	852.478628802727	-664.9095663854	5437.805702605241	853.5690432706128	-671.8950753519154	5148.94148375062	1187.3392123050862	-418.28765297458625	5096.053672330117	1123.4986644301496	-348.3977077091813	5197.768680372545	995.7861391401198	-510.0419414845934	5378.251811740744	930.5925400330668	-499.89850784317656	5371.083330244997	941.9886383805824	-507.2244772464038	5376.274242556095	941.4120676339387	-532.4363782476382	5380.351966699973	938.7040734899834	-551.8152502223877	5384.147277964966	934.4734128703178	-569.5286533005136	5370.852790648199	935.3732542708207	-513.3800097885517	5366.596492089196	931.4950615561406	-545.2676349959718	5370.2140059161065	925.5532923423025	-573.0428388908614	5376.027811291216	922.2590044965926	-589.418065970596	5383.244461312837	919.8019403853227	-602.3697518442588	5372.572331991182	929.0808701687884	-517.4892261047056	5369.3490882187825	921.895568302568	-550.8125397058583	5373.545430479087	914.5901814042495	-581.5665588128942	5380.679030115123	910.2214201598064	-601.53656583745	5388.633426811079	907.341251662695	-615.8120314880538	5373.831171083106	924.751345055734	-519.5402110287836	5371.846174872949	914.6035133806631	-551.0724485670441	5375.7639335587155	907.4073440271557	-578.2812701926332	5382.783049993285	902.7532083733842	-597.7582110724807	5390.327680280042	899.8365604827941	-611.2822890646705	5375.914493533741	919.73914423824	-521.2831929651204	5375.159985013322	907.3976669935199	-551.1601813124895	5378.712271793338	900.3864022045409	-573.4402855432434	5384.032839001957	896.3875509528826	-587.884982250491	5390.831710676671	893.4562063123933	-600.0021675513061
69	0.567	5446.805	859.65103	-201.189	5531.177198388195	855.7890212738672	-231.76498439600797	5395.716260203811	463.99446490072154	-285.0145911496025	5433.83225229522	47.19773432803738	-347.43376065475695	5358.108210130906	-32.06202237581122	-190.40741465250662	5371.849583978195	835.7456019131589	-156.7327443117079	5254.206275588485	438.3951649836598	-98.06089792118053	5195.994607259389	63.09671617458653	74.10105314644188	5228.919992608158	19.67019011989732	255.74716239407928	5400.478221830344	981.1564172423302	-260.06487996745904	5347.2008768496835	1046.422714532331	-307.71120170486796	5285.097032748446	1107.7081489759942	-357.7684080838243	5217.687205842663	1156.9930446019885	-406.2401226548006	5144.853459284197	1209.957078241497	-454.5093418667533	5103.310249850735	1282.7523828145315	-410.6945876895995	5080.387060565102	1368.4085695309523	-278.3098691829401	5187.676246072149	1199.6803926059933	-456.77001243826214	5263.428106850343	1203.5617479895868	-529.4401222490856	5339.849858414808	992.648828046361	-549.7562660602839	5428.812201858129	899.262216448182	-638.7324197288822	5433.407739598135	905.7006136213123	-651.4034923631796	5427.245991364963	907.313125561583	-668.2242710080819	5423.954018620306	906.0836905947682	-679.1713125279506	5422.064322309074	903.0463621203132	-687.641277083333	5438.956360267904	897.6260525186732	-649.3473558931247	5451.47087095983	887.407732065415	-664.7584676034159	5451.923898274171	881.5392474705911	-677.9902320851168	5445.888980038304	881.2819340290868	-687.0214969244461	5436.633164559248	883.3563734223595	-695.0397275052735	5440.845681190259	891.6426535155359	-646.8441358577197	5454.076249368542	878.4392372836918	-660.5209641753288	5454.768977716892	871.2807514043393	-674.582298967928	5447.583255242392	870.6081168106084	-685.2972090865492	5437.501982226982	872.7018516122894	-693.9826226506839	5441.953988149206	887.6461140908259	-644.654940918306	5455.044967166779	872.2560745750555	-654.9315491898619	5455.829644787518	865.266371353536	-666.7807240903634	5448.994496235358	864.219094292143	-676.9001041065519	5439.561069009625	865.9989150653546	-684.9642255073886	5442.137369122282	883.5724581319117	-641.901180369818	5454.572989351422	866.8413571727175	-649.5421609714405	5455.4257698405945	860.1409790283277	-658.3513732358952	5450.5487531097815	858.843398565795	-665.4039539066599	5442.2547510420645	860.112883573326	-672.3583770345425	5149.735839891037	1187.9964545093615	-418.2807470886572	5096.949677560204	1124.3128590499753	-349.0609939745285	5198.871715482004	997.7352706815992	-510.16751590820905	5379.61030967057	934.994261578213	-499.7285502633324	5372.921037899895	946.7102960946113	-506.9415950516298	5378.20739003694	946.1446882688972	-532.0423284666945	5382.284233484461	943.4465161645138	-551.3673302796667	5386.021198096485	939.2259151277032	-569.0559677728531	5372.51695734697	940.1704127607568	-513.1773907845088	5368.374471397993	936.7387676379473	-545.0755205334441	5371.943484603031	930.9031417900109	-572.8248396209648	5377.703068659785	927.5261002947973	-589.1457574393528	5384.858604712567	924.9002094733779	-602.0267128779672	5374.043299064438	933.8587106370068	-517.3487077698913	5370.82659896983	927.0985669561959	-550.7158669001979	5374.943996952115	919.9047509740376	-581.4497591965296	5381.999693717291	915.4341092091713	-601.358139572013	5389.881150124933	912.3682210560507	-615.5581069337125	5375.163617264952	929.5063230042565	-519.4437918189948	5373.066811546964	919.7260519606057	-551.0550473039376	5376.889145800108	912.6220869289405	-578.2545497741392	5383.818984404521	907.8670022906283	-597.6764138532537	5391.28833407572	904.7744620923268	-611.1315739816457	5377.07706462713	924.4376556675982	-521.2334114829666	5376.118264195906	912.4059532139509	-551.2132848192243	5379.553095610228	905.459038516482	-573.4984076941489	5384.788689238386	901.3819667734446	-587.9089687390021	5391.509448416968	898.2921699590132	-599.9685787526665
70	0.575	5446.805	859.65103	-201.189	5530.9414106126915	855.7172343140726	-231.55933643861144	5395.821900070792	463.8246349336113	-284.54280206838564	5434.095877075472	47.32138489588131	-347.17703805410974	5358.729121458395	-32.000533825869084	-190.2931842965471	5372.0465828957595	835.8103658229602	-156.9331778859091	5254.282065658855	438.6389443527312	-97.3795332357336	5195.827968963002	63.50579574302912	74.96389236236949	5228.813893901973	20.003572249786885	256.51684817840044	5400.662255056155	981.1917499283492	-260.09996143825407	5347.517192519643	1046.5714791062426	-307.7056119481462	5285.598329338186	1108.0644190303567	-357.70715572036204	5218.335296152843	1157.546938466592	-406.1132822520839	5145.659145365575	1210.7186467775027	-454.3080568106284	5104.229155808637	1283.5928304741544	-410.5333190185448	5081.234183420913	1369.364672300755	-278.25228452456656	5188.376521840314	1200.3838332173011	-456.43823328680526	5263.958415858945	1204.6668122134	-528.4635756211723	5341.764526673524	995.00683850662	-548.6466284236083	5432.099613496896	904.7509425537222	-638.2922932422566	5436.7114866858865	911.8458481431594	-650.6398587001611	5430.79456121592	914.1037418783808	-667.3091422359798	5427.714350023243	913.2950262752217	-678.2168973012607	5426.036492884987	910.5838601075442	-686.7107550090748	5442.401235181886	903.7313698366297	-648.7916412745028	5455.345418439127	894.3366385162352	-664.2706593589442	5456.141800168968	889.0262365655603	-677.5484019758877	5450.277728968102	889.0671102792107	-686.5483431856306	5441.134578057787	891.3554607187323	-694.5002371396865	5444.38994794063	897.6404637975102	-646.4660894407397	5458.0933545113185	885.1822053450329	-660.3052529518942	5459.172526713802	878.6158230454689	-674.4399803881586	5452.1985762747945	878.2948421793052	-685.1282425954131	5442.243325625143	880.6186975169836	-693.7464887795807	5445.557415708536	893.5470832568896	-644.4011436365354	5459.12323013603	878.7411657225707	-654.9324379030579	5460.256026129727	872.2491177534595	-666.8690555987068	5453.631145161968	871.5312541037894	-676.9751970338485	5444.319052548495	873.5228095445838	-684.9820714282176	5445.797283096011	889.3369360015807	-641.7850012413567	5458.703063005142	873.0581407020276	-649.7459826767316	5459.8501514929885	866.7249738261202	-658.6607229888857	5455.134025312432	865.6525321406299	-665.720823403054	5446.951834210017	867.1008679369374	-672.6344198137755	5150.535946793941	1188.6635773493451	-418.2655829764975	5097.842139252052	1125.124325455673	-349.74276621562217	5200.03755028424	999.7756198456373	-510.315722584822	5381.026293656632	939.6407055247093	-499.4769804267554	5374.830454339131	951.6754004455328	-506.5460947527026	5380.214049417901	951.136515031272	-531.5352239574867	5384.291637163374	948.4628914418512	-550.8105895761747	5387.971925724762	944.2678361063269	-568.4818733451509	5374.257127297626	945.2239269128967	-512.8735063485575	5370.250908823844	942.2723518203697	-544.7779036031513	5373.778150496272	936.5684524790965	-572.5094476609507	5379.48076961832	933.1201428992808	-588.7838001714772	5386.568248327742	930.3319508539671	-601.6022573451418	5375.590069353147	938.9020507556531	-517.1199398190746	5372.401709119565	932.6047073923838	-550.5338489429431	5376.447395216998	925.5514791951604	-581.2582087093012	5383.4218260703165	920.9933419318564	-601.1151425232944	5391.222719135227	917.7491308993082	-615.2490262655748	5376.571249569757	934.5324136846197	-519.2683433159087	5374.381916830148	925.1583349244248	-550.9689794580046	5378.114982215918	918.1729310097128	-578.1701766995645	5384.952220377083	913.3313386641503	-597.5477286725481	5392.339084508114	910.070129155308	-610.9432710115306	5378.3126941233095	929.4127126379614	-521.1160078884299	5377.166309378904	917.7296056726861	-551.2150218652507	5380.488298538263	910.8696404081041	-573.5167151758664	5385.636342169349	906.7256043280789	-587.9023140631589	5392.27251849545	903.4841696127495	-599.913347752806
71	0.583	5446.805	859.65103	-201.189	5530.706808375718	855.643024534208	-231.35242191176275	5395.9149718592735	463.65868025693726	-284.0761010111522	5434.323001630472	47.44094545222497	-346.89415118748684	5359.311880191733	-31.94230833307897	-190.14884815193338	5372.241629752586	835.8775005962063	-157.13403511055716	5254.285691404765	438.9033745613837	-96.70702442687009	5195.618071267374	63.92756523514237	75.80089295254533	5228.684819667571	20.330844489601873	257.2540369578713	5400.84956694288	981.2274530258943	-260.1388028395421	5347.836680571344	1046.722137051354	-307.701490772233	5286.100112637955	1108.421627574312	-357.6439139334568	5218.982570717729	1158.1044159522062	-405.9795053017232	5146.463626999629	1211.4883809193807	-454.09451654779105	5105.153976805087	1284.4421313492796	-410.3560664417712	5082.0801122397115	1370.3336171289136	-278.18200046667494	5189.0747260167855	1201.0947227949773	-456.0949594270526	5264.488619069543	1205.8029223619208	-527.4572249422098	5343.703330824157	997.4129797848044	-547.4605527210257	5435.481672249249	910.4930115831827	-637.6962686069496	5440.0815220107625	918.2821938606867	-649.7053530348542	5434.391023514115	921.2107127231019	-666.202343225139	5431.517004165922	920.8412126258814	-677.057080356002	5430.052537515281	918.4724122944368	-685.564027602917	5445.936815320593	910.1368527114291	-648.0669719579209	5459.32690729605	901.6306932028903	-663.5941612665076	5460.472272388371	896.9112922822039	-676.9009766325321	5454.772277225742	897.2582761473769	-685.8582616602032	5445.729258733316	899.7586352860832	-693.7338842193878	5448.0437799531355	903.9380861999862	-645.9216710646226	5462.246064161475	892.2881799501928	-659.9053185857107	5463.720251340046	886.3495489382623	-674.0953923779853	5456.951069451443	886.3896496877086	-684.7435266943863	5447.108695285598	888.9414804326502	-693.2838285868883	5449.283426933451	899.7461003684517	-643.9833358845643	5463.3590304419195	885.5798291547738	-654.7554650036149	5464.849855693783	879.616127100137	-666.7642337477523	5458.429782760876	879.2365689844517	-676.8443664281216	5449.227278400283	881.4377464318326	-684.7839708721889	5449.593462934541	895.394412759059	-641.5078436558472	5463.010264972186	879.6162406442886	-649.7780959737732	5464.4632515417	873.6740249551937	-658.7868618937663	5459.905801166472	872.8328035593665	-665.8455266689119	5451.826032889048	874.4578859199261	-672.7096244482427	5151.335972078295	1189.3363535100855	-418.2408302658104	5098.727035131711	1125.9302838589556	-350.4353393779268	5201.253276931405	1001.8897755597632	-510.47812517459084	5382.474244533304	944.4804490901458	-499.13915333155114	5376.7810039209935	956.8304180717457	-506.03509397410505	5382.263901771465	956.3344616813101	-530.9120686993463	5386.344838119801	953.7001856104732	-550.1415526196005	5389.971622487745	949.5460182336525	-567.802152338536	5376.044781141975	950.4788269693422	-512.4642814927066	5372.197182956743	948.0362118787422	-544.3697457420394	5375.691178114546	942.4884632410757	-572.0905227178557	5381.335585787185	938.9813380176037	-588.325532961787	5388.349559636872	936.0393087133667	-601.0894035877031	5377.186393129733	944.1555305190344	-516.797771457933	5374.049296516789	938.3538995642857	-550.2598135086585	5378.032764966487	931.4689774915788	-580.9838933483977	5384.9245180565285	926.838879994764	-600.7988653614199	5392.638931950321	923.4258560118844	-614.8756970039515	5378.029410624146	939.7740761442476	-519.0079808244203	5375.769185949066	930.8403565808958	-550.8063642613625	5379.421416658482	923.998711849868	-578.0189607247493	5386.164776966289	919.0861482819298	-597.3622202076933	5393.463633166802	915.6654725807591	-610.7070493242089	5379.598671150226	934.6088845755174	-520.9242671680621	5378.284721338023	923.3090866328329	-551.1563397204395	5381.500775083436	916.5577199187366	-573.4848968541112	5386.560410997252	912.3587636934993	-587.8540621251323	5393.107155156801	908.9742531913224	-599.8251096887408
